<?xml version="1.0" encoding="UTF-8" standalone="no"?>
<svg width="233px" height="249px" viewBox="0 0 233 249" version="1.1" xmlns="http://www.w3.org/2000/svg" xmlns:xlink="http://www.w3.org/1999/xlink" xmlns:sketch="http://www.bohemiancoding.com/sketch/ns">
    <!-- Generator: Sketch 3.1.1 (8761) - http://www.bohemiancoding.com/sketch -->
    <title>logo@2x</title>
    <desc>Created with Sketch.</desc>
    <defs></defs>
    <g id="切图" stroke="none" stroke-width="1" fill="none" fill-rule="evenodd" sketch:type="MSPage">
        <g id="logo" sketch:type="MSArtboardGroup" fill="#FFFFFF">
            <g id="logo-2" sketch:type="MSLayerGroup" transform="translate(118.437384, 125.781089) rotate(-13.000000) translate(-118.437384, -125.781089) translate(6.937384, 1.781089)">
                <path d="M1.99974333,73.453951 C-2.06614414,101.605447 -5.92015869,208.219969 58.1518257,235.48686 C152.809509,275.779545 235.973086,210.339953 221.562273,108.029176 C216.076607,69.088792 207.196367,-16.3447875 82.3583073,3.38464483 C82.3583073,3.38464483 11.1275513,10.3303971 1.99974333,73.453951 Z" id="Fill-2" fill-opacity="0.289826766" sketch:type="MSShapeGroup"></path>
                <path d="M149.764122,165.162483 L156.504905,165.162483 L156.504905,173.886895 C156.504905,181.360577 157.992621,183.767556 164.573348,183.767556 L174.792762,183.767556 L174.792762,176.219468 L166.059913,176.219468 C164.883097,176.219468 164.72995,175.893499 164.72995,173.885714 L164.72995,165.161302 L174.747855,165.161302 L174.747855,157.288425 L132.844226,157.288425 L132.844226,165.161302 L141.689921,165.161302 C141.103816,171.822421 141.400899,172.766079 132.844226,177.239895 L132.844226,185.852108 C148.104834,179.639788 148.76118,176.009241 149.764122,165.162483" id="Fill-3" opacity="0.380597015" sketch:type="MSShapeGroup"></path>
                <path d="M137.557248,151.754027 L169.613391,151.754027 L169.613391,151.717415 L169.666359,151.754027 C169.666359,151.754027 172.386162,151.364281 173.188746,150.12536 L173.188746,142.377675 C173.188746,142.377675 171.780482,143.352041 169.666359,143.850444 C169.650238,143.850444 169.631814,143.859892 169.613391,143.866979 L169.613391,143.850444 L137.557248,143.850444 C135.443124,143.352041 134.036012,142.377675 134.036012,142.377675 L134.036012,150.12536 C134.836293,151.364281 137.557248,151.754027 137.557248,151.754027" id="Fill-4" opacity="0.380597015" sketch:type="MSShapeGroup"></path>
                <path d="M76.9051685,74.1283663 L76.9051685,61.0163545 L96.8580709,61.0163545 L96.8580709,60.9643883 L96.917948,61.0163545 C96.917948,61.0163545 98.9802545,61.0860364 100.974624,60.7742393 C100.974624,60.7742393 104.606402,60.3289837 104.606402,55.7417873 L104.606402,55.7311579 L104.606402,49.1987729 C102.972447,50.5735146 101.700058,50.8947601 96.815466,51.0459344 L47.5630715,51.0459344 C46.2526835,51.0459344 45.1806526,51.2549802 44.2940104,51.5514236 C44.1120761,51.6057519 43.9393536,51.6718906 43.7804489,51.7415726 C43.7700855,51.7439347 43.7597222,51.752202 43.7459044,51.752202 C41.2183986,52.8907338 41.0917354,55.734701 41.0917354,56.2035777 L41.0917354,63.4233334 C43.9577773,60.6986522 47.7783989,61.0163545 47.7783989,61.0163545 L66.8699917,61.0163545 L66.8699917,74.1283663 L55.7501176,74.1283663 L55.9412639,74.1980482 L45.1806526,74.1980482 C43.873719,74.1980482 42.7947792,74.4106371 41.9138945,74.7035374 C41.7319601,74.7590468 41.5592376,74.8180992 41.39803,74.8936864 C41.3842122,74.9019537 41.3703944,74.9019537 41.364637,74.907859 C38.8382826,76.0463907 38.7150739,78.891539 38.7093165,79.3533294 L38.7093165,86.5754472 C41.39803,84.0243803 44.9192659,84.0680791 45.3510721,84.0822517 L45.3510721,84.0952432 L66.3241886,84.0952432 C64.1386733,93.008624 56.1738635,103.607362 41.6882038,109.061449 L41.6916582,109.067354 L41.6939612,109.067354 C39.9609788,109.745277 38.7277402,111.460161 38.7277402,113.47385 C38.7277402,116.085151 40.7911983,118.201591 43.3382793,118.201591 C43.8806279,118.201591 44.4045528,118.103564 44.8939332,117.925226 L44.8939332,117.92995 L44.8939332,117.958295 C59.9726068,112.024702 69.2996214,103.361704 73.1398182,94.0644823 C79.210438,106.916663 90.5790325,115.48754 105.603586,119.85388 L105.603586,109.585835 C92.3223782,105.189969 82.6614335,95.5868551 78.2512525,84.0952432 L85.0415494,84.0952432 L85.0841543,84.1070537 L98.9353467,84.1070537 L98.9353467,84.0952432 L98.9871634,84.0952432 L99.0032842,84.1070537 C99.0032842,84.1070537 101.062136,84.1708304 103.057657,83.8578523 C103.057657,83.8578523 106.688284,83.422045 106.688284,78.8289434 L106.688284,78.8088656 L106.688284,72.2835669 C105.056632,73.6665759 103.786546,73.9890025 98.8973478,74.1295474 L76.9051685,74.1295474 L76.9051685,74.1283663" id="Fill-5" opacity="0.380597015" sketch:type="MSShapeGroup"></path>
                <path d="M157.724326,74.1283663 L157.724326,61.0163545 L177.679531,61.0163545 L177.679531,60.9643883 L177.749772,61.0163545 C177.749772,61.0163545 179.802866,61.0860364 181.799538,60.7742393 C181.799538,60.7742393 185.430165,60.3289837 185.430165,55.7417873 L185.430165,55.7311579 L185.430165,49.1987729 C183.798513,50.5735146 182.52267,50.8947601 177.640381,51.0459344 L128.390289,51.0459344 C127.075295,51.0459344 126.003264,51.2549802 125.118925,51.5514236 C124.939294,51.6057519 124.759662,51.6718906 124.611121,51.7415726 C124.593849,51.7439347 124.585788,51.752202 124.566213,51.752202 C122.042162,52.8907338 121.914347,55.734701 121.914347,56.2035777 L121.914347,63.4233334 C124.782692,60.6986522 128.605616,61.0163545 128.605616,61.0163545 L147.696058,61.0163545 L147.696058,74.1283663 L136.571578,74.1283663 L136.769633,74.1980482 L126.010173,74.1980482 C124.697482,74.1980482 123.621997,74.4106371 122.735355,74.7035374 C122.559178,74.7590468 122.380698,74.8180992 122.21949,74.8936864 C122.207975,74.9019537 122.199915,74.9019537 122.186097,74.907859 C119.660894,76.0463907 119.534231,78.891539 119.534231,79.3533294 L119.534231,86.5754472 C122.220642,84.0243803 125.744181,84.0680791 126.173684,84.0822517 L126.173684,84.0952432 L147.1468,84.0952432 C144.953225,93.008624 136.991869,103.607362 122.516573,109.061449 L122.52233,109.067354 C120.788196,109.745277 119.551503,111.460161 119.551503,113.47385 C119.551503,116.085151 121.617264,118.201591 124.157437,118.201591 C124.702088,118.201591 125.23177,118.103564 125.716545,117.925226 L125.716545,117.92995 L125.716545,117.958295 C140.795219,112.024702 150.131445,103.361704 153.965884,94.0644823 C160.035353,106.916663 171.409705,115.48754 186.425047,119.85388 L186.425047,109.585835 C173.156505,105.189969 163.484045,95.5868551 159.083076,84.0952432 L165.865313,84.0952432 L165.909069,84.1070537 L179.772928,84.1070537 L179.772928,84.0952432 L179.812078,84.0952432 L179.830502,84.1070537 C179.830502,84.1070537 181.890505,84.1708304 183.884874,83.8578523 C183.884874,83.8578523 187.516653,83.422045 187.516653,78.8289434 L187.516653,78.8088656 L187.516653,72.2835669 C185.888455,73.6665759 184.61146,73.9890025 179.72802,74.1295474 L157.724326,74.1295474 L157.724326,74.1283663" id="Fill-6" opacity="0.380597015" sketch:type="MSShapeGroup"></path>
                <path d="M96.7141354,167.102947 L96.7141354,167.100585 L75.3115157,167.100585 L75.3115157,161.694921 L97.7619852,161.694921 C97.7159259,161.683111 97.6836844,161.672481 97.6836844,161.672481 C97.6836844,161.672481 102.909116,161.478789 102.909116,155.756604 L102.909116,127.042928 C101.670119,128.573568 93.124962,128.741277 93.124962,128.741277 L47.0080565,128.741277 C37.1997219,128.741277 37.6983142,135.16973 37.6983142,135.16973 L37.6983142,156.846713 C37.6983142,156.846713 37.7063746,156.878601 37.714435,156.918757 L37.714435,163.633023 C39.7329852,162.264187 42.2593395,161.814207 43.5570611,161.678387 C43.7470559,161.684292 43.9220813,161.696102 44.0913494,161.696102 L65.6321472,161.696102 L65.6321472,167.101766 L43.5063959,167.101766 L43.5063959,167.131292 L41.979529,167.131292 C40.6725955,167.131292 39.5902012,167.339157 38.7150739,167.634419 C38.5262307,167.694653 38.3569626,167.756067 38.195755,167.828111 C38.1853916,167.828111 38.1715738,167.834017 38.1635134,167.839922 C35.6337047,168.979635 35.5116474,171.824783 35.5024356,172.290116 L35.5024356,177.539882 C38.1899975,174.982909 41.7204453,175.0396 42.1487971,175.053772 L42.1487971,175.142351 L42.191402,175.060859 L43.5063959,175.060859 L43.5063959,175.072669 L60.4792595,175.072669 C55.6338178,179.635063 48.6742528,183.512449 37.816917,186.861906 C37.85031,186.877259 37.8790971,186.883164 37.8790971,186.883164 L37.8790971,186.88907 C36.1230851,187.400464 34.8334238,189.046847 34.8334238,191.013295 C34.8334238,193.376575 36.7011297,195.289875 39.0087022,195.289875 C39.5153548,195.289875 39.9863115,195.198934 40.43539,195.033587 C49.8591291,192.091593 59.4889838,188.112637 65.6309957,181.677098 L65.6309957,198.823575 L75.3115157,198.823575 L75.3115157,181.107832 C82.6545246,188.800008 95.021455,193.587983 105.459651,196.525253 L105.459651,187.904772 C97.225394,185.157651 85.9546756,179.814583 80.7937276,175.072669 L96.7141354,175.072669 L96.7141354,175.045505 L97.709017,175.045505 L97.709017,175.02897 L97.7573793,175.02897 L97.7723486,175.045505 C97.7723486,175.045505 99.8346551,175.110463 101.826721,174.805752 L101.826721,174.797485 C101.826721,174.797485 105.459651,174.355772 105.459651,169.761489 L105.459651,169.748498 L105.459651,165.262872 C103.827999,166.641157 102.554459,166.965945 97.6687151,167.105309 L96.7141354,167.105309 L96.7141354,167.102947 L96.7141354,167.102947 Z M75.3115157,136.8917 L93.1410828,136.8917 L93.1410828,141.393861 L75.3115157,141.393861 L75.3115157,136.8917 Z M75.3115157,148.962026 L93.1410828,148.962026 L93.1410828,153.550404 L75.3115157,153.550404 L75.3115157,148.962026 Z M47.0690852,148.962026 L65.6309957,148.962026 L65.6309957,153.550404 L47.0690852,153.550404 L47.0690852,148.962026 Z M47.0690852,136.8917 L65.6309957,136.8917 L65.6309957,141.393861 L47.0690852,141.393861 L47.0690852,136.8917 Z" id="Fill-7" opacity="0.380597015" sketch:type="MSShapeGroup"></path>
                <path d="M177.489536,128.999927 L126.368284,128.999927 C120.50378,128.999927 120.091549,134.298115 120.070822,135.40594 L120.070822,192.907698 C120.070822,192.907698 120.080034,192.988009 120.091549,193.12383 C120.080034,193.285634 120.070822,193.413187 120.070822,193.48405 L120.070822,200.214851 C122.411788,198.629883 125.447098,198.268482 126.431616,198.22124 L181.272159,198.22124 C181.272159,198.22124 182.556063,198.39013 183.955115,197.875192 C185.066296,197.531507 186.321413,196.744928 186.922487,194.982802 C187.282902,194.097015 187.513198,192.966751 187.513198,191.538862 L187.513198,127.313388 C187.51435,129.307 177.489536,128.999927 177.489536,128.999927 L177.489536,128.999927 Z M127.815699,137.052323 L179.301971,137.052323 L179.301971,190.360174 L127.815699,190.360174 L127.815699,137.052323 Z" id="Fill-8" opacity="0.380597015" sketch:type="MSShapeGroup"></path>
            </g>
        </g>
    </g>
</svg>